<svg width="326" height="484" viewBox="0 0 326 484" fill="none" xmlns="http://www.w3.org/2000/svg">
<g opacity="0.1">
<path fill-rule="evenodd" clip-rule="evenodd" d="M324.152 191.282H271.854L255.678 233.821L255.752 233.864L271.854 191.501H324.146L340.253 233.864L340.321 233.821L324.152 191.282ZM318.523 198.145L318.518 198.136H277.482L277.477 198.145H318.523ZM298.003 228.186L303.836 224.568L301.604 218.705H294.402L292.164 224.568L298.003 228.186ZM246.858 236.278L266.39 184.861H329.61L349.142 236.278L298.003 268.049L246.858 236.278Z" fill="white"/>
<path fill-rule="evenodd" clip-rule="evenodd" d="M329.798 185.182H266.197L246.545 236.849L297.994 268.778L349.455 236.849L329.798 185.182ZM238.007 239.217L260.925 178.979H335.07L357.993 239.217L297.994 276.451L238.007 239.217Z" fill="white"/>
<path fill-rule="evenodd" clip-rule="evenodd" d="M335.448 178.243H260.557L237.412 239.035L298 276.612L358.588 239.035L335.448 178.243ZM229.155 241.324L255.466 172.257H340.54L366.845 241.324L298 284.014L229.155 241.324Z" fill="white"/>
<path fill-rule="evenodd" clip-rule="evenodd" d="M341.093 171.309H254.907L228.261 241.226L297.997 284.431L367.733 241.226L341.093 171.309ZM220.304 243.431L249.985 165.535H346.009L375.696 243.431L297.997 291.576L220.304 243.431Z" fill="white"/>
<path fill-rule="evenodd" clip-rule="evenodd" d="M345.984 164.371H249.044L219.078 243.415L297.511 292.262L375.944 243.415L345.984 164.371ZM211.452 245.538L244.329 158.812H350.693L383.564 245.538L297.511 299.139L211.452 245.538Z" fill="white"/>
<path fill-rule="evenodd" clip-rule="evenodd" d="M351.622 157.439H243.388L209.948 245.602L297.508 300.083L385.068 245.602L351.622 157.439ZM202.601 247.642L238.858 152.09H356.153L392.416 247.642L297.508 306.701L202.601 247.642Z" fill="white"/>
<path fill-rule="evenodd" clip-rule="evenodd" d="M357.27 150.507H237.746L200.807 247.785L297.505 307.905L394.21 247.785L357.27 150.507ZM193.749 249.746L233.389 145.368H361.634L401.267 249.746L297.505 314.264L193.749 249.746Z" fill="white"/>
<path fill-rule="evenodd" clip-rule="evenodd" d="M362.923 143.571H232.099L191.664 249.977L297.505 315.739L403.352 249.977L362.923 143.571ZM184.898 251.851L227.915 138.646H367.102L410.119 251.851L297.505 321.826L184.898 251.851Z" fill="white"/>
<path fill-rule="evenodd" clip-rule="evenodd" d="M368.565 137.48H226.452L182.521 252.999L297.505 324.4L412.495 252.999L368.565 137.48ZM176.046 254.8L222.441 132.764H372.57L418.97 254.8L297.505 330.229L176.046 254.8Z" fill="white"/>
<path fill-rule="evenodd" clip-rule="evenodd" d="M374.216 130.539H220.806L173.388 255.193L297.508 332.224L421.634 255.193L374.216 130.539ZM167.195 256.911L216.975 126.042H378.041L427.822 256.911L297.508 337.792L167.195 256.911Z" fill="white"/>
<path fill-rule="evenodd" clip-rule="evenodd" d="M379.861 123.613H215.155L164.244 257.381L297.508 340.049L430.773 257.381L379.861 123.613ZM158.343 259.017L211.505 119.319H383.511L436.673 259.017L297.508 345.354L158.343 259.017Z" fill="white"/>
<path fill-rule="evenodd" clip-rule="evenodd" d="M385.51 116.677H209.501L155.099 259.562L297.508 347.874L439.917 259.562L385.51 116.677ZM149.492 261.121L206.037 112.597H388.974L445.525 261.121L297.508 352.917L149.492 261.121Z" fill="white"/>
<path fill-rule="evenodd" clip-rule="evenodd" d="M391.166 109.732H203.862L145.965 261.749L297.508 355.703L449.062 261.749L391.166 109.732ZM140.64 263.23L200.572 105.875H394.45L454.376 263.23L297.508 360.479L140.64 263.23Z" fill="white"/>
<path fill-rule="evenodd" clip-rule="evenodd" d="M396.807 102.806L198.209 102.806L136.826 263.937L297.505 363.527L458.191 263.937L396.807 102.806ZM131.789 265.331L195.095 99.1528L399.921 99.1528L463.228 265.331L297.505 368.042L131.789 265.331Z" fill="white"/>
<path fill-rule="evenodd" clip-rule="evenodd" d="M402.462 95.8708L192.56 95.8708L127.68 266.131L297.511 371.356L467.342 266.131L402.462 95.8708ZM124.123 268.173L122.937 267.437L189.627 92.4305L405.401 92.4305L472.079 267.437L297.511 375.604L124.123 268.173Z" fill="white"/>
<path fill-rule="evenodd" clip-rule="evenodd" d="M408.102 88.9402L186.909 88.9402L118.534 268.309L297.505 379.175L476.476 268.309L408.102 88.9402ZM114.086 269.548L184.151 85.7083L410.854 85.7083L480.931 269.548L297.505 383.167L114.086 269.548Z" fill="white"/>
<path fill-rule="evenodd" clip-rule="evenodd" d="M413.758 82.8404L181.259 82.8404L109.394 271.343L297.508 387.839L485.622 271.343L413.758 82.8404ZM105.234 272.49L178.682 79.8264L416.334 79.8264L489.782 272.49L297.508 391.569L105.234 272.49Z" fill="white"/>
<path fill-rule="evenodd" clip-rule="evenodd" d="M419.599 75.9052L176.401 75.9052L101.233 273.529L297.997 395.663L494.767 273.529L419.599 75.9052ZM97.3663 274.598L174.018 73.1042L421.982 73.1042L498.634 274.598L297.997 399.132L97.3663 274.598Z" fill="white"/>
<path fill-rule="evenodd" clip-rule="evenodd" d="M425.247 68.9795L170.747 68.9795L92.0828 275.712L297.997 403.487L503.917 275.712L425.247 68.9795ZM89.404 277.26L88.5148 276.704L168.55 66.382L427.456 66.382L507.485 276.704L297.997 406.694L89.404 277.26Z" fill="white"/>
<path fill-rule="evenodd" clip-rule="evenodd" d="M430.894 62.0396L165.106 62.0396L82.9544 277.899L298 411.311L513.051 277.899L430.894 62.0396ZM79.6634 278.809L163.078 59.6597L432.927 59.6597L516.337 278.809L298 414.257L79.6634 278.809Z" fill="white"/>
<path fill-rule="evenodd" clip-rule="evenodd" d="M522.197 280.09L436.549 55.1093L159.457 55.1093L73.8034 280.09L298 419.14L522.197 280.09ZM71.5598 281.387L70.8119 280.922L157.315 53.6872L157.604 52.9375L438.396 52.9375L525.188 280.922L298.748 421.36L298 421.819L71.5598 281.387Z" fill="white"/>
<path fill-rule="evenodd" clip-rule="evenodd" d="M442.199 48.1741L153.801 48.1741L64.6635 282.271L298.003 426.959L531.337 282.271L442.199 48.1741ZM61.9604 283.026L152.135 46.2153L443.865 46.2153L534.04 283.026L298.003 429.382L61.9604 283.026Z" fill="white"/>
<path fill-rule="evenodd" clip-rule="evenodd" d="M447.843 41.239L148.151 41.239L55.512 284.467L298 434.787L540.482 284.467L447.843 41.239ZM53.7097 285.507L53.1089 285.139L146.428 40.0976L146.66 39.493L449.34 39.493L542.659 284.535L542.891 285.139L298 436.944L53.7097 285.507Z" fill="white"/>
<path fill-rule="evenodd" clip-rule="evenodd" d="M453.499 35.1442L142.501 35.1442L46.3719 287.488L297.997 443.447L549.628 287.488L453.499 35.1442ZM44.7846 288.402L44.2574 288.073L140.987 34.1431L141.197 33.6111L454.803 33.6111L551.544 287.541L551.743 288.073L297.997 445.347L44.7846 288.402Z" fill="white"/>
<path fill-rule="evenodd" clip-rule="evenodd" d="M558.757 289.678L459.146 28.2236L136.859 28.2236L37.2428 289.678L298 451.27L558.757 289.678ZM35.8708 290.466L35.4059 290.181L135.555 27.3532L135.731 26.8889L460.275 26.8889L560.418 289.721L560.594 290.181L298.459 452.62L298 452.91L35.8708 290.466Z" fill="white"/>
<path fill-rule="evenodd" clip-rule="evenodd" d="M464.797 21.2837L131.203 21.2837L28.0911 291.865L297.997 459.099L567.903 291.865L464.797 21.2837ZM26.9343 292.532L26.5544 292.29L130.109 20.5584L130.251 20.1667L465.744 20.1667L569.304 291.908L569.446 292.29L297.997 460.472L26.9343 292.532Z" fill="white"/>
<path fill-rule="evenodd" clip-rule="evenodd" d="M678.346 295.608L571.744 15.9043L226.855 15.9043L120.248 295.608L399.297 468.468L678.346 295.608ZM119.318 296.145L119 295.947L225.965 15.3095L226.084 15L572.516 15L679.475 295.637L679.594 295.947L399.615 469.392L399.297 469.59L119.318 296.145Z" fill="white"/>
<path fill-rule="evenodd" clip-rule="evenodd" d="M586.184 296.754L476.093 7.41013L119.907 7.41013L9.81001 296.754L297.994 475.575L586.184 296.754ZM9.09538 297.165L8.8515 297.02L119.317 6.72223L476.683 6.72223L587.149 297.02L298.233 476.287L297.994 476.438L9.09538 297.165Z" fill="white"/>
<path fill-rule="evenodd" clip-rule="evenodd" d="M113.843 0L113.781 0.169532L0 299.123L0.170169 299.229L298 484L298.164 483.893L596 299.123L595.943 298.958L482.163 0L113.843 0ZM0.663669 298.939L114.263 0.479529L481.743 0.479529L595.336 298.939L298 483.395L0.663669 298.939Z" fill="white"/>
</g>
</svg>
